<svg xmlns="http://www.w3.org/2000/svg" viewBox="0 0 1024 1024" width="1024" height="1024" role="img" aria-label="">
<defs>
  <pattern id="h1" width="7" height="7" patternUnits="userSpaceOnUse" patternTransform="rotate(45)"><line x1="0" y1="0" x2="0" y2="7" stroke="#c9a24a" stroke-width="0.9" stroke-opacity="0.55"/></pattern><pattern id="h2" width="6" height="6" patternUnits="userSpaceOnUse" patternTransform="rotate(-30)"><line x1="0" y1="0" x2="0" y2="6" stroke="#c9a24a" stroke-width="0.9" stroke-opacity="0.55"/></pattern>
  <filter id="soft" x="-30%" y="-30%" width="160%" height="160%"><feGaussianBlur stdDeviation="28"/></filter>
  <filter id="grain"><feTurbulence type="fractalNoise" baseFrequency="0.9" numOctaves="2" seed="75"/><feColorMatrix values="0 0 0 0 0.79 0 0 0 0 0.64 0 0 0 0 0.29 0 0 0 0.06 0"/></filter>
</defs>
<rect width="1024" height="1024" fill="#0f0e0c"/>
<g transform="rotate(0 512 512)" fill="none">
    <ellipse cx="430" cy="560" rx="200" ry="220" fill="#c98a4a" fill-opacity="0.22" transform="rotate(0 430 560)" filter="url(#soft)"/>
    <path d="M130 160 V620" stroke="#c9a24a" stroke-width="1.4" stroke-linecap="round" stroke-opacity="0.8" stroke-opacity="0.12"/><path d="M150 160 V620" stroke="#c9a24a" stroke-width="1.4" stroke-linecap="round" stroke-opacity="0.8" stroke-opacity="0.15"/><path d="M170 160 V620" stroke="#c9a24a" stroke-width="1.4" stroke-linecap="round" stroke-opacity="0.8" stroke-opacity="0.18"/><path d="M190 160 V620" stroke="#c9a24a" stroke-width="1.4" stroke-linecap="round" stroke-opacity="0.8" stroke-opacity="0.21"/><path d="M210 160 V620" stroke="#c9a24a" stroke-width="1.4" stroke-linecap="round" stroke-opacity="0.8" stroke-opacity="0.24"/><path d="M230 160 V620" stroke="#c9a24a" stroke-width="1.4" stroke-linecap="round" stroke-opacity="0.8" stroke-opacity="0.27"/>
    <path d="M770 160 V620" stroke="#c9a24a" stroke-width="1.4" stroke-linecap="round" stroke-opacity="0.8" stroke-opacity="0.12"/><path d="M790 160 V620" stroke="#c9a24a" stroke-width="1.4" stroke-linecap="round" stroke-opacity="0.8" stroke-opacity="0.15"/><path d="M810 160 V620" stroke="#c9a24a" stroke-width="1.4" stroke-linecap="round" stroke-opacity="0.8" stroke-opacity="0.18"/><path d="M830 160 V620" stroke="#c9a24a" stroke-width="1.4" stroke-linecap="round" stroke-opacity="0.8" stroke-opacity="0.21"/><path d="M850 160 V620" stroke="#c9a24a" stroke-width="1.4" stroke-linecap="round" stroke-opacity="0.8" stroke-opacity="0.24"/><path d="M870 160 V620" stroke="#c9a24a" stroke-width="1.4" stroke-linecap="round" stroke-opacity="0.8" stroke-opacity="0.27"/>
    <path d="M200 620 H824" stroke="#c9a24a" stroke-width="3.2" stroke-linecap="round" stroke-linejoin="round"/>
    <path d="M460 620 V400 C460 360 500 340 540 360" stroke="#c9a24a" stroke-width="3.2" stroke-linecap="round" stroke-linejoin="round"/>
    <path d="M500 350 L620 300 L680 380 L560 430 Z" fill="url(#h1)" stroke="#c9a24a" stroke-width="3.2" stroke-linecap="round" stroke-linejoin="round"/>
    <path d="M540 410 C560 470 600 520 660 560 C600 560 540 520 520 470 Z" fill="#7f8fb0" fill-opacity="0.35"/>
    <ellipse cx="460" cy="620" rx="80" ry="14" fill="url(#h2)" stroke="#e2c477" stroke-width="2" stroke-linecap="round" stroke-linejoin="round"/>
    <path d="M300 620 V560 H380 V620 M300 590 H380" stroke="#e2c477" stroke-width="2" stroke-linecap="round" stroke-linejoin="round"/>
    <path d="M700 620 V590 H760 V620" stroke="#e2c477" stroke-width="2" stroke-linecap="round" stroke-linejoin="round"/>
    <circle cx="640" cy="330" r="22" stroke="#e2c477" stroke-width="2" stroke-linecap="round" stroke-linejoin="round"/>
    <path d="M640 318 V330 L648 336" stroke="#e2c477" stroke-width="2" stroke-linecap="round" stroke-linejoin="round"/>
    <path d="M180 700 H844" stroke="#c9a24a" stroke-width="1.4" stroke-linecap="round" stroke-opacity="0.8"/><path d="M230 716 H794" stroke="#c9a24a" stroke-width="1.4" stroke-linecap="round" stroke-opacity="0.8" stroke-opacity="0.45"/><path d="M300 730 H724" stroke="#c9a24a" stroke-width="1.4" stroke-linecap="round" stroke-opacity="0.8" stroke-opacity="0.25"/>
    <circle cx="742" cy="199" r="3.0" fill="#e2c477" fill-opacity="0.53"/><circle cx="373" cy="295" r="1.0" fill="#e2c477" fill-opacity="0.49"/><circle cx="823" cy="128" r="2.4" fill="#e2c477" fill-opacity="0.67"/><circle cx="444" cy="170" r="1.2" fill="#e2c477" fill-opacity="0.74"/><circle cx="327" cy="325" r="1.7" fill="#e2c477" fill-opacity="0.47"/><circle cx="457" cy="278" r="2.2" fill="#e2c477" fill-opacity="0.73"/></g>
<rect width="1024" height="1024" filter="url(#grain)" opacity="0.6"/>
<circle cx="512" cy="512" r="6" fill="#efe7d6" fill-opacity="0"/>
</svg>