<svg xmlns="http://www.w3.org/2000/svg" viewBox="0 0 1024 1024" width="1024" height="1024" role="img" aria-label="">
<defs>
  <pattern id="h1" width="7" height="7" patternUnits="userSpaceOnUse" patternTransform="rotate(45)"><line x1="0" y1="0" x2="0" y2="7" stroke="#c9a24a" stroke-width="0.9" stroke-opacity="0.55"/></pattern><pattern id="h2" width="6" height="6" patternUnits="userSpaceOnUse" patternTransform="rotate(-30)"><line x1="0" y1="0" x2="0" y2="6" stroke="#c9a24a" stroke-width="0.9" stroke-opacity="0.55"/></pattern>
  <filter id="soft" x="-30%" y="-30%" width="160%" height="160%"><feGaussianBlur stdDeviation="28"/></filter>
  <filter id="grain"><feTurbulence type="fractalNoise" baseFrequency="0.9" numOctaves="2" seed="51"/><feColorMatrix values="0 0 0 0 0.79 0 0 0 0 0.64 0 0 0 0 0.29 0 0 0 0.06 0"/></filter>
</defs>
<rect width="1024" height="1024" fill="#0f0e0c"/>
<g transform="rotate(0 512 512)">
    <ellipse cx="512" cy="380" rx="240" ry="170" fill="#6f9a7a" fill-opacity="0.22" transform="rotate(0 512 380)" filter="url(#soft)"/>
    <path d="M512 780 V470" stroke="#c9a24a" stroke-width="3.2" stroke-linecap="round" stroke-linejoin="round" fill="none"/>
    <path d="M512 560 C470 530 440 540 410 560 M512 610 C560 580 590 590 620 610 M512 660 C480 640 450 650 430 680" stroke="#e2c477" stroke-width="2" stroke-linecap="round" stroke-linejoin="round" fill="none"/>
    <circle cx="512" cy="330" r="120" fill="url(#h2)" stroke="#e2c477" stroke-width="2" stroke-linecap="round" stroke-linejoin="round" fill="none"/><circle cx="400" cy="400" r="84" fill="url(#h2)" stroke="#e2c477" stroke-width="2" stroke-linecap="round" stroke-linejoin="round" fill="none"/><circle cx="624" cy="400" r="84" fill="url(#h2)" stroke="#e2c477" stroke-width="2" stroke-linecap="round" stroke-linejoin="round" fill="none"/><circle cx="452" cy="300" r="62" fill="url(#h2)" stroke="#e2c477" stroke-width="2" stroke-linecap="round" stroke-linejoin="round" fill="none"/><circle cx="572" cy="300" r="62" fill="url(#h2)" stroke="#e2c477" stroke-width="2" stroke-linecap="round" stroke-linejoin="round" fill="none"/><circle cx="512" cy="440" r="60" fill="url(#h2)" stroke="#e2c477" stroke-width="2" stroke-linecap="round" stroke-linejoin="round" fill="none"/>
    <circle cx="641" cy="370" r="13" fill="#c9a24a" fill-opacity="0.85"/><circle cx="641" cy="370" r="6" fill="#0f0e0c"/><circle cx="614" cy="413" r="13" fill="#c9a24a" fill-opacity="0.85"/><circle cx="614" cy="413" r="6" fill="#0f0e0c"/><circle cx="578" cy="446" r="13" fill="#c9a24a" fill-opacity="0.85"/><circle cx="578" cy="446" r="6" fill="#0f0e0c"/><circle cx="512" cy="468" r="13" fill="#c9a24a" fill-opacity="0.85"/><circle cx="512" cy="468" r="6" fill="#0f0e0c"/><circle cx="449" cy="443" r="13" fill="#c9a24a" fill-opacity="0.85"/><circle cx="449" cy="443" r="6" fill="#0f0e0c"/><circle cx="415" cy="418" r="13" fill="#c9a24a" fill-opacity="0.85"/><circle cx="415" cy="418" r="6" fill="#0f0e0c"/><circle cx="393" cy="370" r="13" fill="#c9a24a" fill-opacity="0.85"/><circle cx="393" cy="370" r="6" fill="#0f0e0c"/><circle cx="392" cy="318" r="13" fill="#c9a24a" fill-opacity="0.85"/><circle cx="392" cy="318" r="6" fill="#0f0e0c"/><circle cx="452" cy="278" r="13" fill="#c9a24a" fill-opacity="0.85"/><circle cx="452" cy="278" r="6" fill="#0f0e0c"/><circle cx="512" cy="274" r="13" fill="#c9a24a" fill-opacity="0.85"/><circle cx="512" cy="274" r="6" fill="#0f0e0c"/><circle cx="579" cy="298" r="13" fill="#c9a24a" fill-opacity="0.85"/><circle cx="579" cy="298" r="6" fill="#0f0e0c"/><circle cx="612" cy="321" r="13" fill="#c9a24a" fill-opacity="0.85"/><circle cx="612" cy="321" r="6" fill="#0f0e0c"/>
    <path d="M400 780 H624 M420 780 C440 860 584 860 604 780 M420 780 C440 740 584 740 604 780" stroke="#c9a24a" stroke-width="1.4" stroke-linecap="round" stroke-opacity="0.8" fill="none"/>
    <path d="M512 700 C500 740 480 760 460 780 M512 700 C524 740 544 760 564 780 M512 700 C512 740 512 760 512 780" stroke="#c9a24a" stroke-width="1.4" stroke-linecap="round" stroke-opacity="0.8" fill="none" stroke-opacity="0.5"/>
    <circle cx="500" cy="287" r="2.7" fill="#e2c477" fill-opacity="0.58"/><circle cx="271" cy="260" r="1.6" fill="#e2c477" fill-opacity="0.40"/><circle cx="537" cy="324" r="2.0" fill="#e2c477" fill-opacity="0.71"/><circle cx="246" cy="124" r="1.2" fill="#e2c477" fill-opacity="0.42"/><circle cx="432" cy="207" r="2.1" fill="#e2c477" fill-opacity="0.29"/><circle cx="162" cy="304" r="2.3" fill="#e2c477" fill-opacity="0.28"/><circle cx="298" cy="327" r="1.4" fill="#e2c477" fill-opacity="0.42"/><circle cx="678" cy="373" r="1.3" fill="#e2c477" fill-opacity="0.56"/></g>
<rect width="1024" height="1024" filter="url(#grain)" opacity="0.6"/>
<circle cx="512" cy="512" r="6" fill="#efe7d6" fill-opacity="0"/>
</svg>