<svg xmlns="http://www.w3.org/2000/svg" viewBox="0 0 1024 1024" width="1024" height="1024" role="img" aria-label="">
<defs>
  <pattern id="h1" width="7" height="7" patternUnits="userSpaceOnUse" patternTransform="rotate(45)"><line x1="0" y1="0" x2="0" y2="7" stroke="#c9a24a" stroke-width="0.9" stroke-opacity="0.55"/></pattern><pattern id="h2" width="6" height="6" patternUnits="userSpaceOnUse" patternTransform="rotate(-30)"><line x1="0" y1="0" x2="0" y2="6" stroke="#c9a24a" stroke-width="0.9" stroke-opacity="0.55"/></pattern>
  <filter id="soft" x="-30%" y="-30%" width="160%" height="160%"><feGaussianBlur stdDeviation="28"/></filter>
  <filter id="grain"><feTurbulence type="fractalNoise" baseFrequency="0.9" numOctaves="2" seed="28"/><feColorMatrix values="0 0 0 0 0.79 0 0 0 0 0.64 0 0 0 0 0.29 0 0 0 0.06 0"/></filter>
</defs>
<rect width="1024" height="1024" fill="#0f0e0c"/>
<g transform="rotate(0.6 512 512)" fill="none">
    <ellipse cx="512" cy="500" rx="300" ry="150" fill="#b08a5a" fill-opacity="0.22" transform="rotate(0 512 500)" filter="url(#soft)"/>
    <path d="M300 300 H724 V700 H300 Z" fill="url(#h2)" stroke="#c9a24a" stroke-width="1.4" stroke-linecap="round" stroke-opacity="0.6"/>
    <path d="M300 300 C320 290 340 310 360 300 M664 300 C684 290 704 310 724 300" stroke="#c9a24a" stroke-width="1.4" stroke-linecap="round"/>
    <path d="M330 340 H648" stroke="#c9a24a" stroke-width="1.4" stroke-linecap="round" stroke-opacity="0.55"/><path d="M330 372 H672" stroke="#c9a24a" stroke-width="1.4" stroke-linecap="round" stroke-opacity="0.55"/><path d="M330 404 H665" stroke="#c9a24a" stroke-width="1.4" stroke-linecap="round" stroke-opacity="0.55"/><path d="M330 436 H674" stroke="#c9a24a" stroke-width="1.4" stroke-linecap="round" stroke-opacity="0.55"/><path d="M330 468 H665" stroke="#c9a24a" stroke-width="1.4" stroke-linecap="round" stroke-opacity="0.55"/><path d="M330 500 H668" stroke="#c9a24a" stroke-width="1.4" stroke-linecap="round" stroke-opacity="0.55"/><path d="M330 532 H671" stroke="#c9a24a" stroke-width="1.4" stroke-linecap="round" stroke-opacity="0.55"/><path d="M330 564 H675" stroke="#c9a24a" stroke-width="1.4" stroke-linecap="round" stroke-opacity="0.55"/><path d="M330 596 H678" stroke="#c9a24a" stroke-width="1.4" stroke-linecap="round" stroke-opacity="0.55"/><path d="M330 628 H648" stroke="#c9a24a" stroke-width="1.4" stroke-linecap="round" stroke-opacity="0.55"/><path d="M330 660 H642" stroke="#c9a24a" stroke-width="1.4" stroke-linecap="round" stroke-opacity="0.55"/>
    <path d="M300 250 V750" stroke="#c9a24a" stroke-width="3.2" stroke-linecap="round" stroke-linejoin="round"/>
    <path d="M724 250 V750" stroke="#c9a24a" stroke-width="3.2" stroke-linecap="round" stroke-linejoin="round"/>
    <rect x="276" y="286" width="48" height="428" rx="24" fill="#0f0e0c" stroke="#c9a24a" stroke-width="3.2" stroke-linecap="round" stroke-linejoin="round"/>
    <rect x="700" y="286" width="48" height="428" rx="24" fill="#0f0e0c" stroke="#c9a24a" stroke-width="3.2" stroke-linecap="round" stroke-linejoin="round"/>
    <circle cx="300" cy="238" r="14" stroke="#e2c477" stroke-width="2" stroke-linecap="round" stroke-linejoin="round"/>
    <circle cx="724" cy="238" r="14" stroke="#e2c477" stroke-width="2" stroke-linecap="round" stroke-linejoin="round"/>
    <circle cx="300" cy="762" r="14" stroke="#e2c477" stroke-width="2" stroke-linecap="round" stroke-linejoin="round"/>
    <circle cx="724" cy="762" r="14" stroke="#e2c477" stroke-width="2" stroke-linecap="round" stroke-linejoin="round"/>
    <path d="M180 810 H844" stroke="#c9a24a" stroke-width="1.4" stroke-linecap="round"/><path d="M230 826 H794" stroke="#c9a24a" stroke-width="1.4" stroke-linecap="round" stroke-opacity="0.45"/><path d="M300 840 H724" stroke="#c9a24a" stroke-width="1.4" stroke-linecap="round" stroke-opacity="0.25"/>
    <circle cx="724" cy="378" r="2.7" fill="#e2c477" fill-opacity="0.73"/><circle cx="412" cy="291" r="1.1" fill="#e2c477" fill-opacity="0.62"/><circle cx="504" cy="135" r="1.2" fill="#e2c477" fill-opacity="0.25"/><circle cx="387" cy="265" r="1.6" fill="#e2c477" fill-opacity="0.75"/><circle cx="505" cy="242" r="2.7" fill="#e2c477" fill-opacity="0.63"/><circle cx="454" cy="311" r="2.4" fill="#e2c477" fill-opacity="0.59"/><circle cx="419" cy="105" r="2.0" fill="#e2c477" fill-opacity="0.56"/><circle cx="366" cy="186" r="2.4" fill="#e2c477" fill-opacity="0.59"/><circle cx="326" cy="354" r="2.8" fill="#e2c477" fill-opacity="0.59"/><circle cx="718" cy="314" r="1.7" fill="#e2c477" fill-opacity="0.41"/><circle cx="793" cy="200" r="2.4" fill="#e2c477" fill-opacity="0.57"/><circle cx="459" cy="250" r="1.4" fill="#e2c477" fill-opacity="0.53"/></g>
<rect width="1024" height="1024" filter="url(#grain)" opacity="0.6"/>
<circle cx="512" cy="512" r="6" fill="#efe7d6" fill-opacity="0"/>
</svg>